<svg width="390" height="414" viewBox="0 0 390 414" fill="none" xmlns="http://www.w3.org/2000/svg">
<ellipse cx="195" cy="218.5" rx="195" ry="195.5" fill="url(#paint0_linear_2303_4)"/>
<g filter="url(#filter0_dd_2303_4)">
<path d="M240.787 162.48C239.764 152.168 235.375 144.156 227.619 138.446C219.864 132.736 209.338 129.881 196.043 129.881C187.009 129.881 179.381 131.159 173.159 133.716C166.938 136.188 162.165 139.639 158.841 144.071C155.602 148.503 153.983 153.531 153.983 159.156C153.813 163.844 154.793 167.935 156.923 171.429C159.139 174.923 162.165 177.949 166 180.506C169.835 182.977 174.267 185.151 179.295 187.026C184.324 188.815 189.693 190.349 195.403 191.628L218.926 197.253C230.347 199.81 240.83 203.219 250.375 207.48C259.92 211.741 268.188 216.983 275.176 223.205C282.165 229.426 287.577 236.756 291.412 245.193C295.332 253.631 297.335 263.304 297.42 274.213C297.335 290.236 293.244 304.128 285.148 315.889C277.136 327.565 265.545 336.642 250.375 343.119C235.29 349.511 217.094 352.707 195.787 352.707C174.651 352.707 156.241 349.469 140.56 342.991C124.963 336.514 112.776 326.926 103.997 314.227C95.304 301.443 90.7443 285.634 90.3182 266.798H143.884C144.48 275.577 146.994 282.906 151.426 288.787C155.943 294.582 161.952 298.972 169.452 301.955C177.037 304.852 185.602 306.301 195.148 306.301C204.523 306.301 212.662 304.937 219.565 302.21C226.554 299.483 231.966 295.69 235.801 290.832C239.636 285.974 241.554 280.392 241.554 274.085C241.554 268.205 239.807 263.261 236.312 259.256C232.903 255.25 227.875 251.841 221.227 249.028C214.665 246.216 206.611 243.659 197.065 241.358L168.557 234.199C146.483 228.83 129.054 220.435 116.27 209.014C103.486 197.594 97.1364 182.21 97.2216 162.864C97.1364 147.011 101.355 133.162 109.878 121.315C118.486 109.469 130.29 100.222 145.29 93.5739C160.29 86.9261 177.335 83.6023 196.426 83.6023C215.858 83.6023 232.818 86.9261 247.307 93.5739C261.881 100.222 273.216 109.469 281.312 121.315C289.409 133.162 293.585 146.884 293.841 162.48H240.787Z" fill="white"/>
</g>
<defs>
<filter id="filter0_dd_2303_4" x="86.3182" y="83.6023" width="215.102" height="288.105" filterUnits="userSpaceOnUse" color-interpolation-filters="sRGB">
<feFlood flood-opacity="0" result="BackgroundImageFix"/>
<feColorMatrix in="SourceAlpha" type="matrix" values="0 0 0 0 0 0 0 0 0 0 0 0 0 0 0 0 0 0 127 0" result="hardAlpha"/>
<feOffset dy="15"/>
<feGaussianBlur stdDeviation="2"/>
<feComposite in2="hardAlpha" operator="out"/>
<feColorMatrix type="matrix" values="0 0 0 0 1 0 0 0 0 1 0 0 0 0 1 0 0 0 0.25 0"/>
<feBlend mode="normal" in2="BackgroundImageFix" result="effect1_dropShadow_2303_4"/>
<feColorMatrix in="SourceAlpha" type="matrix" values="0 0 0 0 0 0 0 0 0 0 0 0 0 0 0 0 0 0 127 0" result="hardAlpha"/>
<feOffset dy="4"/>
<feGaussianBlur stdDeviation="2"/>
<feComposite in2="hardAlpha" operator="out"/>
<feColorMatrix type="matrix" values="0 0 0 0 0 0 0 0 0 0 0 0 0 0 0 0 0 0 0.05 0"/>
<feBlend mode="normal" in2="effect1_dropShadow_2303_4" result="effect2_dropShadow_2303_4"/>
<feBlend mode="normal" in="SourceGraphic" in2="effect2_dropShadow_2303_4" result="shape"/>
</filter>
<linearGradient id="paint0_linear_2303_4" x1="-26" y1="23" x2="409" y2="377" gradientUnits="userSpaceOnUse">
<stop/>
<stop offset="1" stop-color="#281B43"/>
</linearGradient>
</defs>
</svg>
